<svg width="80" height="16" viewBox="0 0 80 16" fill="none" xmlns="http://www.w3.org/2000/svg">
<path d="M8 2L9.77994 6.05749L14 6.58359L10.88 9.61736L11.7082 14L8 11.8175L4.2918 14L5.12 9.61736L2 6.58359L6.22006 6.05749L8 2Z" fill="#F8C51B"/>
<path d="M24 2L25.7799 6.05749L30 6.58359L26.88 9.61736L27.7082 14L24 11.8175L20.2918 14L21.12 9.61736L18 6.58359L22.2201 6.05749L24 2Z" fill="#F8C51B"/>
<path d="M40 2L41.7799 6.05749L46 6.58359L42.88 9.61736L43.7082 14L40 11.8175L36.2918 14L37.12 9.61736L34 6.58359L38.2201 6.05749L40 2Z" fill="#F8C51B"/>
<path d="M56 2L54.2201 6.05749L50 6.58359L53.12 9.61736L52.2918 14L56 11.8175V2Z" fill="#F8C51B"/>
<path d="M56 11.8175L59.7082 14L58.88 9.61736L62 6.58359L57.7799 6.05749L56 2V11.8175Z" fill="#DDE2E4"/>
<path d="M72 2L73.7799 6.05749L78 6.58359L74.88 9.61736L75.7082 14L72 11.8175L68.2918 14L69.12 9.61736L66 6.58359L70.2201 6.05749L72 2Z" fill="#D5DADD"/>
</svg>
